<mxfile host="app.diagrams.net" modified="2022-06-06T05:55:19.106Z" agent="5.0 (Windows NT 10.0; Win64; x64) AppleWebKit/537.36 (KHTML, like Gecko) Chrome/102.0.5005.63 Safari/537.36 Edg/102.0.1245.33" etag="uGH7gd1h-7dZ9nFh9H_7" version="19.0.0" type="github">
  <diagram id="c_MX2DhADh8p8LBCI-h0" name="第 1 页">
    <mxGraphModel dx="1038" dy="590" grid="1" gridSize="10" guides="1" tooltips="1" connect="1" arrows="1" fold="1" page="1" pageScale="1" pageWidth="827" pageHeight="1169" math="0" shadow="0">
      <root>
        <mxCell id="0" />
        <mxCell id="1" parent="0" />
        <mxCell id="BtSb1gd6qsOIBQ_T8yXU-15" value="" style="edgeStyle=orthogonalEdgeStyle;rounded=0;orthogonalLoop=1;jettySize=auto;html=1;endArrow=none;endFill=0;" edge="1" parent="1" source="BtSb1gd6qsOIBQ_T8yXU-1" target="BtSb1gd6qsOIBQ_T8yXU-3">
          <mxGeometry relative="1" as="geometry" />
        </mxCell>
        <mxCell id="BtSb1gd6qsOIBQ_T8yXU-34" style="edgeStyle=orthogonalEdgeStyle;rounded=0;orthogonalLoop=1;jettySize=auto;html=1;exitX=1;exitY=0.25;exitDx=0;exitDy=0;entryX=0.413;entryY=0.029;entryDx=0;entryDy=0;entryPerimeter=0;fontSize=22;endArrow=classic;endFill=1;" edge="1" parent="1" source="BtSb1gd6qsOIBQ_T8yXU-1" target="BtSb1gd6qsOIBQ_T8yXU-10">
          <mxGeometry relative="1" as="geometry" />
        </mxCell>
        <mxCell id="BtSb1gd6qsOIBQ_T8yXU-1" value="VREF+" style="rounded=0;whiteSpace=wrap;html=1;" vertex="1" parent="1">
          <mxGeometry x="110" y="70" width="120" height="30" as="geometry" />
        </mxCell>
        <mxCell id="BtSb1gd6qsOIBQ_T8yXU-35" style="edgeStyle=orthogonalEdgeStyle;rounded=0;orthogonalLoop=1;jettySize=auto;html=1;exitX=1;exitY=0.5;exitDx=0;exitDy=0;fontSize=22;endArrow=classic;endFill=1;" edge="1" parent="1" source="BtSb1gd6qsOIBQ_T8yXU-2">
          <mxGeometry relative="1" as="geometry">
            <mxPoint x="500" y="360" as="targetPoint" />
          </mxGeometry>
        </mxCell>
        <mxCell id="BtSb1gd6qsOIBQ_T8yXU-2" value="VREF-" style="rounded=0;whiteSpace=wrap;html=1;" vertex="1" parent="1">
          <mxGeometry x="110" y="120" width="120" height="30" as="geometry" />
        </mxCell>
        <mxCell id="BtSb1gd6qsOIBQ_T8yXU-16" value="" style="edgeStyle=orthogonalEdgeStyle;rounded=0;orthogonalLoop=1;jettySize=auto;html=1;endArrow=none;endFill=0;" edge="1" parent="1" source="BtSb1gd6qsOIBQ_T8yXU-3" target="BtSb1gd6qsOIBQ_T8yXU-5">
          <mxGeometry relative="1" as="geometry" />
        </mxCell>
        <mxCell id="BtSb1gd6qsOIBQ_T8yXU-36" style="edgeStyle=orthogonalEdgeStyle;rounded=0;orthogonalLoop=1;jettySize=auto;html=1;exitX=1;exitY=0.5;exitDx=0;exitDy=0;entryX=0.167;entryY=-0.056;entryDx=0;entryDy=0;entryPerimeter=0;fontSize=22;endArrow=classic;endFill=1;" edge="1" parent="1" source="BtSb1gd6qsOIBQ_T8yXU-3" target="BtSb1gd6qsOIBQ_T8yXU-10">
          <mxGeometry relative="1" as="geometry" />
        </mxCell>
        <mxCell id="BtSb1gd6qsOIBQ_T8yXU-3" value="VDDA" style="rounded=0;whiteSpace=wrap;html=1;" vertex="1" parent="1">
          <mxGeometry x="110" y="170" width="120" height="30" as="geometry" />
        </mxCell>
        <mxCell id="BtSb1gd6qsOIBQ_T8yXU-37" style="edgeStyle=orthogonalEdgeStyle;rounded=0;orthogonalLoop=1;jettySize=auto;html=1;exitX=1;exitY=0.5;exitDx=0;exitDy=0;fontSize=22;endArrow=classic;endFill=1;entryX=0.08;entryY=0.011;entryDx=0;entryDy=0;entryPerimeter=0;" edge="1" parent="1" source="BtSb1gd6qsOIBQ_T8yXU-4" target="BtSb1gd6qsOIBQ_T8yXU-10">
          <mxGeometry relative="1" as="geometry">
            <mxPoint x="480" y="370" as="targetPoint" />
          </mxGeometry>
        </mxCell>
        <mxCell id="BtSb1gd6qsOIBQ_T8yXU-4" value="VSSA-" style="rounded=0;whiteSpace=wrap;html=1;" vertex="1" parent="1">
          <mxGeometry x="110" y="220" width="120" height="30" as="geometry" />
        </mxCell>
        <mxCell id="BtSb1gd6qsOIBQ_T8yXU-17" value="" style="edgeStyle=orthogonalEdgeStyle;rounded=0;orthogonalLoop=1;jettySize=auto;html=1;endArrow=none;endFill=0;" edge="1" parent="1" source="BtSb1gd6qsOIBQ_T8yXU-5" target="BtSb1gd6qsOIBQ_T8yXU-6">
          <mxGeometry relative="1" as="geometry" />
        </mxCell>
        <mxCell id="BtSb1gd6qsOIBQ_T8yXU-25" style="edgeStyle=orthogonalEdgeStyle;rounded=0;orthogonalLoop=1;jettySize=auto;html=1;exitX=1;exitY=0.5;exitDx=0;exitDy=0;entryX=0.084;entryY=0.986;entryDx=0;entryDy=0;entryPerimeter=0;fontSize=22;endArrow=none;endFill=0;" edge="1" parent="1" source="BtSb1gd6qsOIBQ_T8yXU-5" target="BtSb1gd6qsOIBQ_T8yXU-8">
          <mxGeometry relative="1" as="geometry" />
        </mxCell>
        <mxCell id="BtSb1gd6qsOIBQ_T8yXU-5" value="" style="whiteSpace=wrap;html=1;aspect=fixed;" vertex="1" parent="1">
          <mxGeometry x="150" y="270" width="40" height="40" as="geometry" />
        </mxCell>
        <mxCell id="BtSb1gd6qsOIBQ_T8yXU-18" value="" style="edgeStyle=orthogonalEdgeStyle;rounded=0;orthogonalLoop=1;jettySize=auto;html=1;endArrow=none;endFill=0;" edge="1" parent="1" source="BtSb1gd6qsOIBQ_T8yXU-6" target="BtSb1gd6qsOIBQ_T8yXU-7">
          <mxGeometry relative="1" as="geometry" />
        </mxCell>
        <mxCell id="BtSb1gd6qsOIBQ_T8yXU-26" style="edgeStyle=orthogonalEdgeStyle;rounded=0;orthogonalLoop=1;jettySize=auto;html=1;exitX=1;exitY=0.5;exitDx=0;exitDy=0;entryX=0.394;entryY=1.04;entryDx=0;entryDy=0;entryPerimeter=0;fontSize=22;endArrow=none;endFill=0;" edge="1" parent="1" source="BtSb1gd6qsOIBQ_T8yXU-6" target="BtSb1gd6qsOIBQ_T8yXU-8">
          <mxGeometry relative="1" as="geometry" />
        </mxCell>
        <mxCell id="BtSb1gd6qsOIBQ_T8yXU-6" value="" style="whiteSpace=wrap;html=1;aspect=fixed;" vertex="1" parent="1">
          <mxGeometry x="150" y="340" width="40" height="40" as="geometry" />
        </mxCell>
        <mxCell id="BtSb1gd6qsOIBQ_T8yXU-28" style="edgeStyle=orthogonalEdgeStyle;rounded=0;orthogonalLoop=1;jettySize=auto;html=1;exitX=1;exitY=0.5;exitDx=0;exitDy=0;entryX=0.87;entryY=1;entryDx=0;entryDy=0;entryPerimeter=0;fontSize=22;endArrow=none;endFill=0;" edge="1" parent="1" source="BtSb1gd6qsOIBQ_T8yXU-7" target="BtSb1gd6qsOIBQ_T8yXU-8">
          <mxGeometry relative="1" as="geometry" />
        </mxCell>
        <mxCell id="BtSb1gd6qsOIBQ_T8yXU-7" value="" style="whiteSpace=wrap;html=1;aspect=fixed;" vertex="1" parent="1">
          <mxGeometry x="150" y="450" width="40" height="40" as="geometry" />
        </mxCell>
        <mxCell id="BtSb1gd6qsOIBQ_T8yXU-29" style="edgeStyle=orthogonalEdgeStyle;rounded=0;orthogonalLoop=1;jettySize=auto;html=1;exitX=0.25;exitY=0;exitDx=0;exitDy=0;fontSize=22;endArrow=none;endFill=0;entryX=0.182;entryY=1.034;entryDx=0;entryDy=0;entryPerimeter=0;" edge="1" parent="1" source="BtSb1gd6qsOIBQ_T8yXU-8" target="BtSb1gd6qsOIBQ_T8yXU-9">
          <mxGeometry relative="1" as="geometry">
            <mxPoint x="360" y="330" as="targetPoint" />
          </mxGeometry>
        </mxCell>
        <mxCell id="BtSb1gd6qsOIBQ_T8yXU-30" style="edgeStyle=orthogonalEdgeStyle;rounded=0;orthogonalLoop=1;jettySize=auto;html=1;exitX=0.5;exitY=0;exitDx=0;exitDy=0;entryX=0.5;entryY=1;entryDx=0;entryDy=0;fontSize=22;endArrow=none;endFill=0;" edge="1" parent="1" source="BtSb1gd6qsOIBQ_T8yXU-8" target="BtSb1gd6qsOIBQ_T8yXU-9">
          <mxGeometry relative="1" as="geometry" />
        </mxCell>
        <mxCell id="BtSb1gd6qsOIBQ_T8yXU-31" style="edgeStyle=orthogonalEdgeStyle;rounded=0;orthogonalLoop=1;jettySize=auto;html=1;exitX=0.75;exitY=0;exitDx=0;exitDy=0;entryX=0.805;entryY=0.965;entryDx=0;entryDy=0;entryPerimeter=0;fontSize=22;endArrow=none;endFill=0;" edge="1" parent="1" source="BtSb1gd6qsOIBQ_T8yXU-8" target="BtSb1gd6qsOIBQ_T8yXU-9">
          <mxGeometry relative="1" as="geometry" />
        </mxCell>
        <mxCell id="BtSb1gd6qsOIBQ_T8yXU-8" value="GPIO" style="rounded=0;whiteSpace=wrap;html=1;direction=south;" vertex="1" parent="1">
          <mxGeometry x="270" y="270" width="60" height="230" as="geometry" />
        </mxCell>
        <mxCell id="BtSb1gd6qsOIBQ_T8yXU-33" style="edgeStyle=orthogonalEdgeStyle;rounded=0;orthogonalLoop=1;jettySize=auto;html=1;exitX=0.5;exitY=0;exitDx=0;exitDy=0;entryX=0;entryY=0.5;entryDx=0;entryDy=0;fontSize=22;endArrow=none;endFill=0;" edge="1" parent="1" source="BtSb1gd6qsOIBQ_T8yXU-9" target="BtSb1gd6qsOIBQ_T8yXU-10">
          <mxGeometry relative="1" as="geometry" />
        </mxCell>
        <mxCell id="BtSb1gd6qsOIBQ_T8yXU-9" value="MUX" style="shape=trapezoid;perimeter=trapezoidPerimeter;whiteSpace=wrap;html=1;fixedSize=1;direction=south;" vertex="1" parent="1">
          <mxGeometry x="370" y="290" width="46" height="190" as="geometry" />
        </mxCell>
        <mxCell id="BtSb1gd6qsOIBQ_T8yXU-38" style="edgeStyle=orthogonalEdgeStyle;rounded=0;orthogonalLoop=1;jettySize=auto;html=1;exitX=0.75;exitY=0;exitDx=0;exitDy=0;entryX=0;entryY=0.75;entryDx=0;entryDy=0;fontSize=22;endArrow=none;endFill=0;" edge="1" parent="1" source="BtSb1gd6qsOIBQ_T8yXU-10" target="BtSb1gd6qsOIBQ_T8yXU-12">
          <mxGeometry relative="1" as="geometry" />
        </mxCell>
        <mxCell id="BtSb1gd6qsOIBQ_T8yXU-44" style="edgeStyle=orthogonalEdgeStyle;rounded=0;orthogonalLoop=1;jettySize=auto;html=1;exitX=0.75;exitY=1;exitDx=0;exitDy=0;fontSize=22;endArrow=openThin;endFill=0;" edge="1" parent="1" source="BtSb1gd6qsOIBQ_T8yXU-10">
          <mxGeometry relative="1" as="geometry">
            <mxPoint x="760" y="360" as="targetPoint" />
          </mxGeometry>
        </mxCell>
        <mxCell id="BtSb1gd6qsOIBQ_T8yXU-46" style="edgeStyle=orthogonalEdgeStyle;rounded=0;orthogonalLoop=1;jettySize=auto;html=1;exitX=0.5;exitY=0;exitDx=0;exitDy=0;fontSize=22;endArrow=openThin;endFill=0;" edge="1" parent="1" source="BtSb1gd6qsOIBQ_T8yXU-10">
          <mxGeometry relative="1" as="geometry">
            <mxPoint x="750" y="210" as="targetPoint" />
            <Array as="points">
              <mxPoint x="530" y="210" />
            </Array>
          </mxGeometry>
        </mxCell>
        <mxCell id="BtSb1gd6qsOIBQ_T8yXU-10" value="模数转换器" style="rounded=0;whiteSpace=wrap;html=1;" vertex="1" parent="1">
          <mxGeometry x="470" y="362.5" width="120" height="45" as="geometry" />
        </mxCell>
        <mxCell id="BtSb1gd6qsOIBQ_T8yXU-42" style="edgeStyle=orthogonalEdgeStyle;rounded=0;orthogonalLoop=1;jettySize=auto;html=1;exitX=1;exitY=0.5;exitDx=0;exitDy=0;fontSize=22;endArrow=openThin;endFill=0;" edge="1" parent="1" source="BtSb1gd6qsOIBQ_T8yXU-12">
          <mxGeometry relative="1" as="geometry">
            <mxPoint x="750" y="255" as="targetPoint" />
            <Array as="points">
              <mxPoint x="710" y="255" />
              <mxPoint x="710" y="255" />
            </Array>
          </mxGeometry>
        </mxCell>
        <mxCell id="BtSb1gd6qsOIBQ_T8yXU-12" value="数据寄存器" style="shape=ext;double=1;rounded=1;whiteSpace=wrap;html=1;" vertex="1" parent="1">
          <mxGeometry x="560" y="230" width="120" height="50" as="geometry" />
        </mxCell>
        <mxCell id="BtSb1gd6qsOIBQ_T8yXU-14" value="" style="shape=flexArrow;endArrow=classic;startArrow=classic;html=1;rounded=0;" edge="1" parent="1">
          <mxGeometry width="100" height="100" relative="1" as="geometry">
            <mxPoint x="760" y="362.5" as="sourcePoint" />
            <mxPoint x="760" y="182.5" as="targetPoint" />
            <Array as="points">
              <mxPoint x="760" y="272.5" />
            </Array>
          </mxGeometry>
        </mxCell>
        <mxCell id="BtSb1gd6qsOIBQ_T8yXU-20" value="ADC_IN0" style="text;html=1;align=center;verticalAlign=middle;resizable=0;points=[];autosize=1;strokeColor=none;fillColor=none;" vertex="1" parent="1">
          <mxGeometry x="55" y="280" width="70" height="20" as="geometry" />
        </mxCell>
        <mxCell id="BtSb1gd6qsOIBQ_T8yXU-21" value="ADC_IN1" style="text;html=1;align=center;verticalAlign=middle;resizable=0;points=[];autosize=1;strokeColor=none;fillColor=none;" vertex="1" parent="1">
          <mxGeometry x="55" y="350" width="70" height="20" as="geometry" />
        </mxCell>
        <mxCell id="BtSb1gd6qsOIBQ_T8yXU-22" value="ADC_IN15" style="text;html=1;align=center;verticalAlign=middle;resizable=0;points=[];autosize=1;strokeColor=none;fillColor=none;" vertex="1" parent="1">
          <mxGeometry x="55" y="460" width="70" height="20" as="geometry" />
        </mxCell>
        <mxCell id="BtSb1gd6qsOIBQ_T8yXU-23" value="..." style="text;html=1;align=center;verticalAlign=middle;resizable=0;points=[];autosize=1;strokeColor=none;fillColor=none;fontSize=22;" vertex="1" parent="1">
          <mxGeometry x="75" y="375" width="30" height="30" as="geometry" />
        </mxCell>
        <mxCell id="BtSb1gd6qsOIBQ_T8yXU-43" value="中断请求" style="html=1;shadow=0;dashed=0;align=center;verticalAlign=middle;shape=mxgraph.arrows2.bendArrow;dy=15;dx=38;notch=0;arrowHead=55;rounded=0;fontSize=22;direction=east;flipV=1;" vertex="1" parent="1">
          <mxGeometry x="610" y="280" width="140" height="60" as="geometry" />
        </mxCell>
        <mxCell id="BtSb1gd6qsOIBQ_T8yXU-48" value="DMA请求" style="text;html=1;align=center;verticalAlign=middle;resizable=0;points=[];autosize=1;strokeColor=none;fillColor=none;fontSize=22;" vertex="1" parent="1">
          <mxGeometry x="625" y="405" width="110" height="30" as="geometry" />
        </mxCell>
        <mxCell id="BtSb1gd6qsOIBQ_T8yXU-49" value="ADCCLK" style="text;html=1;align=center;verticalAlign=middle;resizable=0;points=[];autosize=1;strokeColor=none;fillColor=none;fontSize=22;" vertex="1" parent="1">
          <mxGeometry x="580" y="175" width="100" height="30" as="geometry" />
        </mxCell>
        <mxCell id="BtSb1gd6qsOIBQ_T8yXU-50" value="地址/数据总线" style="whiteSpace=wrap;html=1;fontSize=22;" vertex="1" parent="1">
          <mxGeometry x="790" y="190" width="50" height="120" as="geometry" />
        </mxCell>
      </root>
    </mxGraphModel>
  </diagram>
</mxfile>
